<?xml version="1.0" encoding="utf-8"?>
<!-- Generator: Adobe Illustrator 23.0.1, SVG Export Plug-In . SVG Version: 6.00 Build 0)  -->
<svg version="1.1" id="Layer_1" xmlns="http://www.w3.org/2000/svg" xmlns:xlink="http://www.w3.org/1999/xlink" x="0px" y="0px"
	 viewBox="0 0 612 133.9" style="enable-background:new 0 0 612 133.9;" xml:space="preserve">
<style type="text/css">
	.st0{fill:#34444A;}
	.st1{fill:#79A71E;}
</style>
<g>
	<path class="st0" d="M33,46.7v54.4H20.5V46.7h-17V35.9H50v10.8H33z"/>
	<path class="st0" d="M90.6,101.1L74.4,74.8h-3.7v26.3H58.2V35.9c1.5-0.1,4-0.1,7.5-0.2c3.5-0.1,7.4-0.1,11.7-0.1
		c3.8,0,7.2,0.4,10.2,1.1c3,0.7,5.5,1.9,7.6,3.4s3.7,3.5,4.8,5.9c1.1,2.4,1.6,5.2,1.6,8.5c0,2.5-0.4,4.8-1.1,6.9
		c-0.7,2.1-1.8,3.9-3.1,5.4c-1.3,1.5-2.9,2.8-4.6,3.8c-1.8,1-3.7,1.8-5.9,2.3c0.4,0.6,1.2,1.5,2.2,2.9c1,1.3,1.9,2.7,2.8,4.2
		l14,21.4H90.6V101.1z M88.2,55.5c0-6.5-3.9-9.8-11.8-9.8c-1.1,0-2.2,0-3.3,0.1c-1.1,0.1-1.9,0.1-2.4,0.2v19.3c0.4,0,1.2,0,2.2,0
		s2.1,0,3.1,0c3.9,0,6.9-0.9,9-2.6C87.2,61.1,88.2,58.6,88.2,55.5z"/>
	<path class="st0" d="M152.3,101.1l-4.5-13.9h-24.5l-4.5,13.9H106l21.8-65.3h16.3l22,65.3H152.3z M138.3,56.8c-0.5-1.7-1-3.3-1.5-5
		c-0.5-1.6-0.8-3.2-1.2-4.8h-0.2c-0.3,1.5-0.7,3.1-1.1,4.8c-0.4,1.7-0.9,3.3-1.3,4.8L126.3,77h18.8L138.3,56.8z"/>
	<path class="st0" d="M199.7,101.1h-16.3l-21.9-65.3h13.9l12.5,39.1c0.7,2.5,1.4,5,2.1,7.5c0.7,2.5,1.3,4.8,1.8,7h0.2
		c0.6-2.4,1.2-4.9,1.9-7.4c0.7-2.6,1.4-5,2.1-7.3l12.6-38.9h13.1L199.7,101.1z"/>
	<path class="st0" d="M228.5,101.1V35.9h36.9v10.4H241v16.2h22.4v10.3H241v17.6h24.5v10.8h-37V101.1z"/>
	<path class="st0" d="M277.9,101.1V35.9h12.5v54.4h21.3v10.8C311.7,101.1,277.9,101.1,277.9,101.1z"/>
	<path class="st0" d="M359.1,101.1V73h-27.4v28.1h-12.4V36.4h12.4v25.9h27.4V36.4h12.7v64.8h-12.7V101.1z"/>
	<path class="st0" d="M443.3,67.6c0,5.4-0.8,10.3-2.5,14.7c-1.7,4.3-3.9,8-6.9,11c-2.9,3-6.3,5.2-10.1,6.7
		c-3.8,1.5-7.9,2.3-12.3,2.3c-4.8,0-9.1-0.7-12.8-2.2c-3.7-1.4-6.9-3.5-9.4-6.3s-4.4-6.2-5.7-10.1c-1.3-4-1.9-8.5-1.9-13.6
		c0-5.4,0.8-10.3,2.5-14.7c1.7-4.3,3.9-8,6.9-11c2.9-3,6.3-5.2,10.1-6.7c3.8-1.5,7.9-2.3,12.3-2.3c4.8,0,9.1,0.7,12.8,2.2
		s6.9,3.5,9.4,6.3s4.4,6.2,5.7,10.1S443.3,62.4,443.3,67.6z M430.1,69c0-7-1.5-12.5-4.4-16.4c-3-3.9-7.3-5.9-13.1-5.9
		c-2.6,0-4.9,0.5-7,1.4c-2.1,1-4,2.4-5.5,4.2c-1.6,1.8-2.8,4.1-3.6,6.9c-0.8,2.7-1.3,5.8-1.3,9.3s0.4,6.6,1.1,9.4s1.8,5.1,3.3,7.1
		c1.4,1.9,3.3,3.4,5.4,4.4c2.2,1,4.7,1.5,7.6,1.5c2.6,0,4.9-0.5,7.1-1.4c2.2-1,4-2.4,5.5-4.2c1.5-1.8,2.7-4.1,3.6-6.9
		S430.1,72.5,430.1,69z"/>
	<path class="st0" d="M517.2,101.1l-4-31.8c-0.5-3.6-0.8-7.3-1.1-11.1c-0.3-3.7-0.4-7.1-0.5-10h-0.2c-0.6,2.9-1.3,5.8-2.1,8.8
		c-0.8,3-1.7,6.1-2.7,9.2l-11.7,34.9h-11.6l-11.2-33.6c-1-2.9-2-6.3-3-10s-1.8-6.8-2.3-9.4h-0.2c-0.1,2.8-0.2,6.1-0.4,9.8
		c-0.2,3.7-0.5,7.6-0.9,11.6l-3.3,31.6h-12.1l7.7-64.8h17.3L486.3,70c0.6,1.9,1.3,4,1.9,6.3s1.1,4.6,1.5,6.8h0.2
		c0.5-2.6,1-5,1.5-7.2s1.1-4.2,1.6-5.9l11.3-33.6h17.6l8,64.8h-12.7V101.1z"/>
	<path class="st0" d="M539.5,101.1V36.4h36.6v10.4h-24.3v16h22.3V73h-22.3v17.5h24.3v10.7L539.5,101.1L539.5,101.1z"/>
</g>
<path class="st1" d="M585.8,43.4c1.3,0.6,2.6,1,3.9,1.2c1.3,0.3,2.6,0.4,4,0.4c1.3,0,2.7-0.2,4.1-0.6c1.4-0.4,2.7-1,4-1.9
	s2.4-2.1,3.2-3.4c0.9-1.3,1.6-2.9,2-4.4c0.1-0.4,0.2-0.8,0.3-1.2s0.2-0.8,0.2-1.2c0.1-0.4,0.1-0.8,0.2-1.2c0-0.4,0.1-0.8,0.1-1.3
	c0-0.2,0-0.4,0-0.6c0-0.3,0-0.6,0-0.9v-0.5l-0.1-0.5c-0.1-0.3-0.1-0.6-0.2-0.9c-0.4-1.3-1-2.4-1.7-3.4c-0.3-0.3-0.5-0.7-0.9-1
	c-0.3-0.3-0.7-0.7-1.1-1c-0.8-0.7-1.7-1.4-2.8-2c-2.2-1.3-5.1-2.4-9-3.4c-1.4-0.4-3.1-0.7-5-1.1c-1.8-0.3-3.8-0.6-5.9-0.9
	c-4.1-0.5-8.5-0.8-12.5-0.9c-4-0.2-7.7-0.2-10.4-0.2c-1.3,0-2.4,0-3.2,0c-0.7,0-1.2,0-1.2,0s-1.4,0-3.6,0.1
	c-2.3,0.1-5.4,0.2-8.9,0.3c-7,0.3-15.6,1-21.7,1.6c-9.9,1-15.9,1.8-19.1,2.2c-6.4,0.9-11.4,2-16,3.4s-8.9,3.2-14,5.5
	c5.5,0.3,10.1,0.6,14.9,0.6s9.8-0.4,16.1-1.2c3.1-0.4,9.1-1.2,18.8-2.1c6-0.6,14.4-1.2,21.3-1.6c3.4-0.2,6.5-0.3,8.7-0.4
	s3.6-0.1,3.6-0.1s0.4,0,1.1,0c0.7,0,1.8,0,3.1,0c2.6,0,6.1,0,10,0.2s8.1,0.4,11.9,0.9c1.9,0.2,3.7,0.5,5.4,0.8s3.1,0.6,4.4,0.9
	c3.3,0.8,5.5,1.7,6.9,2.5c0.7,0.4,1.2,0.8,1.5,1c0.2,0.2,0.3,0.3,0.4,0.4c0.1,0.1,0.2,0.2,0.3,0.3c0.2,0.3,0.3,0.5,0.4,0.7
	c0,0.1,0,0.1,0,0.2v0.1v0.1c0,0.1,0,0.1,0,0.2c0,0.2,0,0.3,0,0.5c0,0.3,0,0.6,0,0.9s0,0.6,0,0.9s0,0.6-0.1,0.8c0,0.3,0,0.5-0.1,0.8
	c-0.1,1-0.4,1.9-0.7,2.8c-0.3,0.8-0.7,1.6-1.2,2.3c-1,1.4-2.6,2.6-4.6,3.6c-1,0.5-2.1,0.9-3.3,1.2C588.4,43.1,587.1,43.3,585.8,43.4
	z"/>
<path class="st1" d="M455.5,119.5c10.7,2.7,18,4.1,30.9,4.2c2.6,0,6.7,0,15.8,0c0-0.9,0-1.7-0.1-3c0-0.7,0-1.4,0-2.1
	c0-0.4,0-0.7,0-1.1c0-0.3,0-0.7,0.1-1c0-0.2,0-0.3,0.1-0.5c0-0.1,0.1-0.3,0.1-0.4s0.1-0.3,0.1-0.4s0.1-0.3,0.1-0.4
	c0.3-1.2,0.7-2.4,1.3-3.6c0.6-1.2,1.3-2.4,2.2-3.5c0.9-1.1,2-2.1,3.2-3c2.4-1.8,5.4-2.9,8.5-3.2c3.1-0.3,6.2,0.3,8.9,1.6
	c1.3,0.6,2.6,1.4,3.6,2.3c1.1,0.9,2,1.9,2.8,2.9c1.6,2.1,2.5,4.3,2.9,6.3c0.1,0.5,0.2,1,0.3,1.4c0,0.1,0,0.3,0,0.4s0,0.3,0.1,0.4
	c0,0.1,0,0.3,0,0.4c0,0.5,0,1.1,0,1.6c0,1,0,2.1-0.1,3c0,0.5,0,0.9,0,1.3c0,0.1,0,0.2,0,0.3v0.1c0,0,0,0,0.1,0h0.1
	c0.2,0,0.4,0,0.6,0c3,0,4.8,0,5.2,0c4.9,0,5.1,0,5.1,0s10.9,0,24.9,0c3.7-0.1,7.6-0.5,11.6-1.3c2-0.4,4-1,6-1.7s4-1.6,5.9-2.8
	c1.9-1.2,3.7-2.7,5.2-4.4c1.5-1.8,2.7-3.9,3.4-6c0.1-0.3,0.2-0.5,0.3-0.8s0.2-0.5,0.2-0.8c0.1-0.5,0.2-1.1,0.3-1.6
	c0-0.1,0-0.3,0.1-0.4v-0.3c0-0.2,0.1-0.4,0.1-0.6c0.1-0.4,0.1-0.9,0.2-1.3c0.1-0.8,0.2-1.7,0.3-2.5s0.2-1.6,0.2-2.4
	c0-0.7,0.1-1.3,0.1-1.9s0-1.2,0-1.8c0-0.3,0-0.6,0-0.9s0-0.6,0-0.9c0-0.6,0-1.1-0.1-1.7c-0.2-2.2-0.4-4.3-0.9-6.1
	c-0.5-1.8-1.1-3.4-1.8-4.7c-0.7-1.3-1.4-2.3-2-3.1c-1.2-1.6-2.6-2.8-3.8-3.8c-1.3-1-2.4-1.8-3.5-2.6c-0.5-0.4-1.1-0.7-1.6-1.1
	c-0.5-0.3-1-0.7-1.5-1c-0.2-0.2-0.5-0.3-0.7-0.5s-0.4-0.3-0.7-0.5c-0.5-0.3-0.9-0.7-1.3-1c-3.4-2.7-6.4-5.9-9.5-10.6
	c0.3,2.8,0.7,5.3,1.5,7.8c0.8,2.4,1.9,4.8,3.4,6.9c1.5,2.2,3.4,4.2,5.4,6s4.1,3.5,5.5,5.4c0.4,0.5,0.8,1.1,1.2,1.8
	c0.4,0.8,0.8,1.8,1.1,3s0.5,2.7,0.6,4.5c0,0.4,0,0.9,0,1.4c0,0.2,0,0.5,0,0.7c0,0.3,0,0.5,0,0.8c0,0.5,0,1,0,1.6
	c0,0.5-0.1,1.1-0.1,1.7c0,0.7-0.1,1.4-0.2,2.2c-0.1,0.7-0.1,1.5-0.3,2.3c-0.1,0.4-0.1,0.8-0.2,1.2c0,0.2-0.1,0.4-0.1,0.6v0.3
	c0,0.1,0,0.2,0,0.3c-0.1,0.3-0.1,0.6-0.2,0.9c0,0.2-0.1,0.3-0.1,0.4l-0.1,0.4c-0.4,1.2-1,2.3-1.9,3.3s-1.9,1.9-3.2,2.7
	c-2.6,1.6-5.8,2.7-9.1,3.4c-3.3,0.7-6.8,1-10,1.1c-0.8,0-1.6,0-2.4,0c-0.4,0-0.8,0-1.1,0c-0.2,0-0.5,0-0.5,0h-0.3
	c-0.2,0-0.4,0-0.6,0c-1.6,0-3.2,0-4.7,0c-3,0-5.6,0-7.9,0c-4.5,0-7.2,0-7.2,0s-0.1,0-2.7,0l0,0l0,0l0,0l0,0c0-0.1,0-0.3-0.1-0.4
	c-0.1-0.7-0.2-1.4-0.4-2.1c-0.7-2.9-2-6.3-4.4-9.4c-1.2-1.6-2.5-3-4.1-4.4c-1.6-1.3-3.4-2.5-5.4-3.5c-4-1.9-8.7-2.8-13.2-2.4
	c-2.3,0.2-4.6,0.7-6.7,1.5c-1.1,0.4-2.1,0.9-3.1,1.4s-2,1.1-2.8,1.8c-1.8,1.3-3.4,2.8-4.8,4.4c-1.3,1.6-2.5,3.4-3.3,5.2
	c-0.9,1.8-1.5,3.6-1.9,5.3c0,0.2-0.1,0.4-0.1,0.6s-0.1,0.4-0.1,0.6s-0.1,0.4-0.1,0.6s0,0.4-0.1,0.6l0,0l0,0l0,0l0,0l0,0l0,0
	c-0.1,0-0.2,0-0.2,0c-1.3,0-2.3,0-3.2,0c-1.8,0-3.1,0-4.1,0C473.6,115.4,466.3,116.8,455.5,119.5z"/>
<g>
	<path class="st1" d="M29.3,122.9c-0.6,0.2-1.2,0.4-1.9,0.5c-0.7,0.1-1.4,0.2-2.1,0.2c-1.3,0-2.3-0.2-3.2-0.6
		c-0.9-0.4-1.6-0.9-2.2-1.6c-0.5-0.7-0.9-1.4-1.2-2.3c-0.2-0.9-0.4-1.8-0.4-2.8c0-1.2,0.2-2.3,0.5-3.3c0.3-1,0.8-1.9,1.4-2.6
		c0.6-0.7,1.4-1.3,2.4-1.7s2-0.6,3.3-0.6c0.6,0,1.1,0,1.7,0.1c0.6,0.1,1.1,0.2,1.5,0.3l-0.4,2.7c-0.9-0.4-1.9-0.5-3-0.5
		c-0.7,0-1.3,0.1-1.8,0.4c-0.5,0.2-1,0.6-1.3,1c-0.4,0.5-0.6,1-0.8,1.6c-0.2,0.6-0.3,1.3-0.3,2c0,1.7,0.4,2.9,1.1,3.8
		s1.8,1.3,3.3,1.3c0.5,0,1-0.1,1.5-0.2c0.5-0.1,1-0.3,1.4-0.5L29.3,122.9z"/>
	<path class="st1" d="M45.6,123.5l-1-3.2h-5.7l-1,3.2h-2.9l5-15.1h3.8l5.1,15.1H45.6z M42.4,113.3c-0.1-0.4-0.2-0.8-0.3-1.1
		c-0.1-0.4-0.2-0.7-0.3-1.1h0c-0.1,0.4-0.2,0.7-0.3,1.1c-0.1,0.4-0.2,0.8-0.3,1.1l-1.5,4.7h4.3L42.4,113.3z"/>
	<path class="st1" d="M70.2,123.5l-0.9-7.4c-0.1-0.8-0.2-1.7-0.3-2.6s-0.1-1.6-0.1-2.3h0c-0.1,0.7-0.3,1.4-0.5,2.1
		c-0.2,0.7-0.4,1.4-0.6,2.1l-2.7,8.1h-2.7l-2.6-7.8c-0.2-0.7-0.5-1.5-0.7-2.3s-0.4-1.6-0.5-2.2h0c0,0.7,0,1.4-0.1,2.3
		c-0.1,0.9-0.1,1.8-0.2,2.7l-0.8,7.3h-2.8l1.8-15.1h4l2.6,7.8c0.1,0.4,0.3,0.9,0.4,1.5c0.1,0.5,0.3,1.1,0.3,1.6h0
		c0.1-0.6,0.2-1.2,0.4-1.7c0.1-0.5,0.2-1,0.4-1.4l2.6-7.8h4.1l1.9,15.1H70.2z"/>
	<path class="st1" d="M90.5,113.2c0,0.8-0.1,1.5-0.4,2.2s-0.7,1.2-1.2,1.8c-0.5,0.5-1.2,0.9-2,1.2s-1.6,0.4-2.6,0.4
		c-0.2,0-0.4,0-0.5,0s-0.4,0-0.7,0v4.9h-2.9v-15.1c0.2,0,0.5,0,0.9,0c0.4,0,0.9,0,1.6,0c0.6,0,1.3,0,1.9,0c1.9,0,3.4,0.4,4.4,1.3
		S90.5,111.7,90.5,113.2z M87.5,113.5c0-0.8-0.3-1.5-0.8-2c-0.5-0.5-1.3-0.7-2.4-0.7c-0.5,0-0.9,0-1.3,0v5.4c0,0,0.1,0,0.3,0
		s0.3,0,0.5,0c0.2,0,0.4,0,0.6,0c1,0,1.7-0.3,2.2-0.8C87.2,115,87.5,114.3,87.5,113.5z"/>
	<path class="st1" d="M97.5,123.5v-15.1h8.5v2.4h-5.6v3.7h5.2v2.4h-5.2v4.1h5.6v2.5H97.5z"/>
	<path class="st1" d="M121.3,123.5l-3.8-6.1h-0.8v6.1h-2.9v-15.1c0.3,0,0.9,0,1.7-0.1s1.7,0,2.7,0c0.9,0,1.7,0.1,2.3,0.3
		c0.7,0.2,1.3,0.4,1.8,0.8s0.9,0.8,1.1,1.4c0.3,0.6,0.4,1.2,0.4,2c0,0.6-0.1,1.1-0.3,1.6c-0.2,0.5-0.4,0.9-0.7,1.2s-0.7,0.6-1.1,0.9
		c-0.4,0.2-0.9,0.4-1.4,0.5c0.1,0.1,0.3,0.4,0.5,0.7c0.2,0.3,0.4,0.6,0.7,1l3.2,4.9H121.3z M120.7,112.9c0-1.5-0.9-2.3-2.7-2.3
		c-0.3,0-0.5,0-0.8,0c-0.3,0-0.4,0-0.6,0v4.5c0.1,0,0.3,0,0.5,0c0.2,0,0.5,0,0.7,0c0.9,0,1.6-0.2,2.1-0.6
		C120.5,114.2,120.7,113.7,120.7,112.9z"/>
	<path class="st1" d="M138.5,123.5h-3.8l-5.1-15.1h3.2l2.9,9c0.2,0.6,0.3,1.2,0.5,1.7c0.2,0.6,0.3,1.1,0.4,1.6h0
		c0.1-0.5,0.3-1.1,0.4-1.7c0.2-0.6,0.3-1.2,0.5-1.7l2.9-9h3L138.5,123.5z"/>
	<path class="st1" d="M158.1,123.5l-1-3.2h-5.7l-1,3.2h-2.9l5-15.1h3.8l5.1,15.1H158.1z M154.8,113.3c-0.1-0.4-0.2-0.8-0.3-1.1
		c-0.1-0.4-0.2-0.7-0.3-1.1h0c-0.1,0.4-0.2,0.7-0.3,1.1c-0.1,0.4-0.2,0.8-0.3,1.1l-1.5,4.7h4.3L154.8,113.3z"/>
	<path class="st1" d="M175.5,123.5l-4.9-7.2v7.2h-2.9v-15.1h2.9v6.8l4.9-6.8h3.5l-5.5,7.2l5.8,7.8H175.5z"/>
	<path class="st1" d="M195.2,123.5l-1-3.2h-5.7l-1,3.2h-2.9l5-15.1h3.8l5.1,15.1H195.2z M192,113.3c-0.1-0.4-0.2-0.8-0.3-1.1
		c-0.1-0.4-0.2-0.7-0.3-1.1h0c-0.1,0.4-0.2,0.7-0.3,1.1c-0.1,0.4-0.2,0.8-0.3,1.1l-1.5,4.7h4.3L192,113.3z"/>
	<path class="st1" d="M214.4,123.5h-0.2l-4.7-7.6c-0.7-1.1-1.1-1.9-1.3-2.3c-0.2-0.4-0.4-0.8-0.6-1.3c0,0.3,0.1,0.7,0.1,1.2
		c0,0.4,0,0.9,0.1,1.4s0,1.1,0.1,1.8c0,0.7,0,1.6,0,2.6v4.1h-2.8v-15.1h2.8h0.6l4.4,7.1c0.7,1.1,1.1,1.8,1.3,2.2
		c0.2,0.3,0.4,0.7,0.6,1.2c0-0.5-0.1-1.1-0.1-1.8s-0.1-1.4-0.1-1.9c0-0.5,0-1,0-1.5c0-0.5,0-1,0-1.7v-3.7h2.8v15.1H214.4z"/>
	<path class="st1" d="M230.8,110.9v12.6h-2.9v-12.6H224v-2.5h10.7v2.5H230.8z"/>
	<path class="st1" d="M241.5,123.5v-15.1h2.9v15.1H241.5z"/>
	<path class="st1" d="M252.9,123.5v-15.1h8.5v2.4h-5.6v3.7h5.2v2.4h-5.2v4.1h5.6v2.5H252.9z"/>
	<path class="st1" d="M278.1,119c0,0.7-0.1,1.3-0.4,1.9s-0.6,1.1-1.1,1.5c-0.5,0.4-1.1,0.7-1.8,1s-1.6,0.3-2.5,0.3
		c-1.2,0-2.4-0.1-3.5-0.4l0.3-2.8c0.5,0.2,1.1,0.4,1.6,0.5c0.6,0.1,1.2,0.2,1.7,0.2c0.4,0,0.7,0,1-0.1c0.3-0.1,0.6-0.2,0.8-0.3
		c0.2-0.1,0.4-0.3,0.5-0.6s0.2-0.5,0.2-0.8c0-0.4-0.1-0.8-0.4-1.1c-0.3-0.3-0.7-0.6-1.3-0.8c-0.6-0.3-1.1-0.5-1.7-0.7
		c-0.5-0.2-1-0.5-1.5-0.8s-0.8-0.8-1.1-1.3c-0.3-0.5-0.4-1.2-0.4-1.9c0-0.7,0.1-1.3,0.4-1.8c0.3-0.5,0.6-1,1.1-1.4
		c0.5-0.4,1.1-0.7,1.8-0.9c0.7-0.2,1.5-0.3,2.4-0.3c0.4,0,0.9,0,1.4,0.1c0.5,0.1,0.9,0.1,1.4,0.2l-0.3,2.5c-0.4-0.1-0.9-0.2-1.3-0.3
		c-0.4-0.1-0.9-0.1-1.3-0.1c-0.8,0-1.4,0.2-1.9,0.5c-0.4,0.3-0.6,0.7-0.6,1.3c0,0.4,0.1,0.8,0.4,1.1c0.3,0.3,0.7,0.6,1.3,0.8
		c0.6,0.3,1.1,0.5,1.7,0.7c0.6,0.2,1.1,0.5,1.5,0.9c0.5,0.3,0.8,0.8,1.1,1.3S278.1,118.3,278.1,119z"/>
	<path class="st1" d="M302.2,123.5h-3.8l-5.1-15.1h3.2l2.9,9c0.2,0.6,0.3,1.2,0.5,1.7c0.2,0.6,0.3,1.1,0.4,1.6h0
		c0.1-0.5,0.3-1.1,0.4-1.7c0.2-0.6,0.3-1.2,0.5-1.7l2.9-9h3L302.2,123.5z"/>
	<path class="st1" d="M321.8,123.5l-1-3.2h-5.7l-1,3.2h-2.9l5-15.1h3.8l5.1,15.1H321.8z M318.5,113.3c-0.1-0.4-0.2-0.8-0.3-1.1
		c-0.1-0.4-0.2-0.7-0.3-1.1h0c-0.1,0.4-0.2,0.7-0.3,1.1c-0.1,0.4-0.2,0.8-0.3,1.1l-1.5,4.7h4.3L318.5,113.3z"/>
	<path class="st1" d="M340.9,123.5h-0.2l-4.7-7.6c-0.7-1.1-1.1-1.9-1.3-2.3c-0.2-0.4-0.4-0.8-0.6-1.3c0,0.3,0.1,0.7,0.1,1.2
		c0,0.4,0,0.9,0.1,1.4s0,1.1,0.1,1.8c0,0.7,0,1.6,0,2.6v4.1h-2.8v-15.1h2.8h0.6l4.4,7.1c0.7,1.1,1.1,1.8,1.3,2.2
		c0.2,0.3,0.4,0.7,0.6,1.2c0-0.5-0.1-1.1-0.1-1.8s-0.1-1.4-0.1-1.9c0-0.5,0-1,0-1.5c0-0.5,0-1,0-1.7v-3.7h2.8v15.1H340.9z"/>
	<path class="st1" d="M370.8,123.5l-1-3.2h-5.7l-1,3.2h-2.9l5-15.1h3.8l5.1,15.1H370.8z M367.5,113.3c-0.1-0.4-0.2-0.8-0.3-1.1
		c-0.1-0.4-0.2-0.7-0.3-1.1h0c-0.1,0.4-0.2,0.7-0.3,1.1c-0.1,0.4-0.2,0.8-0.3,1.1l-1.5,4.7h4.3L367.5,113.3z"/>
	<path class="st1" d="M389.9,123.5h-0.2l-4.7-7.6c-0.7-1.1-1.1-1.9-1.3-2.3c-0.2-0.4-0.4-0.8-0.6-1.3c0,0.3,0.1,0.7,0.1,1.2
		c0,0.4,0,0.9,0.1,1.4s0,1.1,0.1,1.8c0,0.7,0,1.6,0,2.6v4.1h-2.8v-15.1h2.8h0.6l4.4,7.1c0.7,1.1,1.1,1.8,1.3,2.2
		c0.2,0.3,0.4,0.7,0.6,1.2c0-0.5-0.1-1.1-0.1-1.8s-0.1-1.4-0.1-1.9c0-0.5,0-1,0-1.5c0-0.5,0-1,0-1.7v-3.7h2.8v15.1H389.9z"/>
	<path class="st1" d="M416.3,123.5h-3.6l-2.3-8.2c-0.1-0.4-0.2-0.8-0.3-1.3s-0.2-1-0.2-1.4h0c-0.2,1.3-0.3,2.2-0.5,2.7l-2.3,8.2
		h-3.6l-3.8-15.1h3.1l2,8.2c0.1,0.7,0.3,1.3,0.4,1.9s0.2,1.2,0.3,1.8h0c0.1-0.6,0.2-1.2,0.3-1.8c0.1-0.6,0.2-1.2,0.4-1.9l2.3-8.3
		h2.9l2.3,8.4c0.2,0.6,0.3,1.2,0.4,1.8c0.1,0.6,0.2,1.2,0.3,1.8h0c0.1-0.7,0.2-1.3,0.3-1.9c0.1-0.6,0.2-1.1,0.3-1.7l2-8.4h2.9
		L416.3,123.5z"/>
	<path class="st1" d="M437.6,118.9c0,0.6-0.1,1.2-0.4,1.7c-0.2,0.6-0.6,1.1-1.1,1.5s-1.1,0.8-1.9,1.1c-0.8,0.3-1.7,0.4-2.7,0.4
		c-0.3,0-0.9,0-1.9,0s-1.8,0-2.5,0v-15c0.4,0,1,0,1.9-0.1c0.9,0,1.8,0,2.7,0c1.8,0,3.2,0.3,4.1,1c0.9,0.7,1.4,1.6,1.4,2.9
		c0,0.7-0.2,1.4-0.6,2c-0.4,0.6-0.9,1-1.6,1.3v0c0.4,0.1,0.8,0.3,1.1,0.5c0.3,0.2,0.6,0.5,0.8,0.7s0.4,0.6,0.5,1
		C437.5,118,437.6,118.4,437.6,118.9z M434,112.6c0-0.6-0.2-1.1-0.6-1.4c-0.4-0.3-1.1-0.5-2-0.5c-0.2,0-0.5,0-0.7,0
		c-0.2,0-0.5,0-0.8,0v4c0.2,0,0.3,0,0.5,0s0.4,0,0.8,0c0.9,0,1.6-0.2,2.1-0.5C433.7,113.8,434,113.3,434,112.6z M434.4,119
		c0-0.7-0.3-1.2-0.8-1.6c-0.5-0.4-1.3-0.5-2.4-0.5c-0.3,0-0.5,0-0.8,0c-0.3,0-0.4,0-0.6,0v4.3c0.2,0,0.4,0,0.7,0c0.3,0,0.6,0,0.9,0
		c1,0,1.7-0.2,2.2-0.6C434.2,120.2,434.4,119.7,434.4,119z"/>
</g>
</svg>
